<svg xmlns="http://www.w3.org/2000/svg" width="1200" height="630" viewBox="0 0 1200 630">
  <rect width="1200" height="630" fill="#0A0A0B"/>
  <rect x="0" y="626" width="1200" height="4" fill="#8B5CF6"/>

  <!-- wordmark lockup: break⌇labs -->
  <text x="80" y="158" font-family="DejaVu Sans Mono, monospace" font-size="66" font-weight="500" fill="#ECE9E2">break</text>
  <path d="M291 100 L283 124 L299 137 L283 150 L291 162" fill="none" stroke="#FB5247" stroke-width="4.6" stroke-linecap="round" stroke-linejoin="round"/>
  <text x="306" y="158" font-family="DejaVu Sans Mono, monospace" font-size="66" font-weight="500" fill="#ECE9E2">labs</text>
  <text x="84" y="214" font-family="DejaVu Sans Mono, monospace" font-size="38" font-weight="500" fill="#8B5CF6">&#183; Programming</text>

  <!-- tagline -->
  <text x="80" y="338" font-family="DejaVu Sans Mono, monospace" font-size="58" font-weight="500" fill="#ECE9E2">Feel the machine.</text>
  <text x="82" y="384" font-family="DejaVu Sans Mono, monospace" font-size="27" fill="#B7B3AB">Predict the output. Watch it break.</text>
  <text x="82" y="424" font-family="DejaVu Sans Mono, monospace" font-size="27" fill="#8B5CF6">Keep the reflex.</text>

  <text x="80" y="566" font-family="DejaVu Sans Mono, monospace" font-size="23" fill="#66666E">programming-lab.vercel.app</text>

  <!-- instrument card -->
  <rect x="724" y="150" width="396" height="300" rx="18" fill="#141417" stroke="#26262C"/>
  <circle cx="752" cy="180" r="5" fill="#3F3F46"/>
  <circle cx="770" cy="180" r="5" fill="#3F3F46"/>
  <circle cx="788" cy="180" r="5" fill="#3F3F46"/>
  <text x="940" y="186" font-family="DejaVu Sans Mono, monospace" font-size="17" fill="#8B5CF6">DO &#183; gotcha</text>

  <text x="750" y="258" font-family="DejaVu Sans Mono, monospace" font-size="27" fill="#ECE9E2">p = p </text>
  <rect x="847" y="234" width="92" height="34" rx="6" fill="#2a2418" stroke="#F2B233"/>
  <text x="858" y="259" font-family="DejaVu Sans Mono, monospace" font-size="27" fill="#F2B233">or 99</text>

  <text x="750" y="312" font-family="DejaVu Sans Mono, monospace" font-size="24" fill="#FB5247">&#215; 0 is falsy &#8594; 99</text>

  <rect x="750" y="338" width="210" height="42" rx="9" fill="#10241b" stroke="#19C37D"/>
  <path d="M766 359 l8 8 l16 -18" fill="none" stroke="#4ADE9E" stroke-width="3" stroke-linecap="round" stroke-linejoin="round"/>
  <text x="800" y="367" font-family="DejaVu Sans Mono, monospace" font-size="24" fill="#4ADE9E">is not None</text>

  <line x1="750" y1="404" x2="1094" y2="404" stroke="#26262C" stroke-width="1"/>
  <text x="750" y="430" font-family="DejaVu Sans Mono, monospace" font-size="20" fill="#8C8C94">0.4 ms &#183; 12 KB peak</text>
</svg>
